<?xml version="1.0" standalone="no"?><!DOCTYPE svg PUBLIC "-//W3C//DTD SVG 1.1//EN" "http://www.w3.org/Graphics/SVG/1.1/DTD/svg11.dtd"><svg t="1561020909790" class="icon" viewBox="0 0 1024 1024" version="1.1" xmlns="http://www.w3.org/2000/svg" p-id="22599" xmlns:xlink="http://www.w3.org/1999/xlink" width="200" height="200"><defs><style type="text/css"></style></defs><path d="M 929.1 736.8 c 0 -17.4 -14.1 -31.6 -31.6 -31.6 H 163.1 V 128.4 c 0 -17.4 -14.1 -31.6 -31.6 -31.6 h -1.9 C 112.2 96.9 98 111 98 128.4 v 639.9 h 799.5 c 17.5 0.1 31.6 -14.1 31.6 -31.5 Z M 929.3 825.5 h -64 V 866 l -63.5 -0.1 v -40.4 h -64 v 40.4 l -63.7 -0.1 V 826 h -64 v 39.8 h -64.3 v -39.3 h -64 v 39.2 h -63.7 v -39.2 h -64 v 39.1 h -63.8 v -40.1 h -64 v 40.1 h -64 V 826 H 98 v 100.8 h 831.1 v -37.3 h 0.2 Z" p-id="22600"></path><path d="M 414.4 631.7 c 3.9 3.6 8.9 5.5 14.1 5.5 c 0.8 0 1.6 0 2.4 -0.1 h 0.4 l 145.1 -22.7 l 330.1 -347.5 c 10.6 -10.7 16.5 -25.5 16.1 -40.5 c -0.3 -15.1 -6.8 -29.6 -17.9 -39.9 l -74.6 -71.9 c -10.1 -9.4 -22.1 -14.3 -34.7 -14.3 c -14.8 0 -29.4 7 -41.1 19.7 L 422.4 469 l -14.7 145.3 l -0.1 0.7 v 0.4 c -0.2 6.1 2.2 12 6.8 16.3 Z M 795 158.6 h 0.3 l 71.2 68.8 v 0.3 l -14.1 15.2 l -71.4 -69.1 l 14 -15.2 Z M 476.5 493.2 L 742.7 215 l 71.5 69.2 l -266.1 278.1 l -82.9 13.6 l 11.3 -82.7 Z" p-id="22601"></path></svg>