<?xml version="1.0" standalone="no"?><!DOCTYPE svg PUBLIC "-//W3C//DTD SVG 1.1//EN" "http://www.w3.org/Graphics/SVG/1.1/DTD/svg11.dtd"><svg t="1561020833764" class="icon" viewBox="0 0 1262 1024" version="1.1" xmlns="http://www.w3.org/2000/svg" p-id="22247" xmlns:xlink="http://www.w3.org/1999/xlink" width="246.484375" height="200"><defs><style type="text/css"></style></defs><path d="M330.79390628 780.59659876c-44.49050408 0-80.73357028-36.47136896-80.7335711-81.21871416V331.9245602c0-44.69026931 36.21452866-81.21871418 80.7335711-81.21871418h587.33743936c44.51904246 0 80.73357028 36.47136896 80.7335711 81.21871418v367.4533244c0 44.69026931-36.15745276 81.21871418-80.7335711 81.21871416z m-16.16669083-443.05008288v349.98816248s0 15.82423627 6.79200788 23.22980777 20.47590583 6.29259521 20.47590499 6.29259521H905.04674255s15.01090741 0.82759763 22.83027814-7.13446161 6.70639444-22.0597564 6.70639444-22.05975641l-0.07134467-350.14512057s1.66946402-12.67080469-4.78008929-20.1619888-20.97531766-6.44955332-20.97531848-6.44955331h-565.04938101s-14.51149558-0.67063953-22.34513425 6.44955331-6.79200787 19.97649316-6.79200787 19.97649316zM110.125 364.11525169c0 22.37367261 11.85747583 38.89708594 34.2454172 38.89708675s33.04682749-16.49487579 33.04682749-38.89708674V188.76444794c0-9.48883393 1.89776678-16.1238837 7.57679837-21.71730185s11.6577106-6.76346951 21.27496508-6.76347033h178.50423614c22.30232794 0 38.45474917-12.48530823 38.45475-33.21805435s-16.1238837-34.24541721-38.45475-34.24541721H190.85857028C146.36806618 92.74885954 110.125 129.22022932 110.125 173.96757371z m0 301.0742916c0-22.37367261 11.85747583-38.89708594 34.2454172-38.89708595s33.04682749 16.49487579 33.04682749 38.89708595v175.3793421c0 9.48883393 1.89776678 16.1238837 7.57679837 21.71730185s11.6577106 6.76346951 21.27496508 6.76347033h178.50423614c22.30232794 0 38.45474917 12.48530823 38.45475 33.21805436s-16.1238837 34.24541721-38.45475 34.24541719H190.85857028C146.36806618 936.51312912 110.125 900.08456648 110.125 855.33722126V665.18954329z m1040.63260996-301.07429159c0 22.37367261-11.85747583 38.89708594-34.24541721 38.89708674s-33.04682749-16.49487579-33.04682749-38.89708675V188.76444794c0-9.48883393-1.89776678-16.1238837-7.57679837-21.71730185s-11.6577106-6.76346951-21.27496509-6.76347033h-178.50423614c-22.30232794 0-38.45474917-12.48530823-38.45475-33.21805435s16.1238837-34.24541721 38.45475-34.24541721h193.92894278c44.49050408-0.07134466 80.73357028 36.40002429 80.73357028 81.14736951z m0 301.07429159c0-22.37367261-11.85747583-38.89708594-34.24541721-38.89708595s-32.97548282 16.45206949-32.97548282 38.89708595v175.3793421c0 9.48883393-1.89776678 16.1238837-7.57679837 21.71730185s-11.6577106 6.76346951-21.27496508 6.76347033H876.10936566c-22.30232794 0-38.45474917 12.48530823-38.45475001 33.21805436s16.1238837 34.24541721 38.45475 34.24541719h193.92894279c44.49050408 0 80.73357028-36.42856265 80.73357028-81.17590786V665.18954329z" fill="" p-id="22248"></path></svg>